<mxfile host="Electron" agent="Mozilla/5.0 (X11; Linux x86_64) AppleWebKit/537.36 (KHTML, like Gecko) draw.io/24.7.17 Chrome/128.0.6613.36 Electron/32.0.1 Safari/537.36" version="24.7.17">
  <diagram name="Page-1" id="kg-eYaNKSoPfdJby2aS6">
    <mxGraphModel dx="1434" dy="838" grid="1" gridSize="10" guides="1" tooltips="1" connect="1" arrows="1" fold="1" page="1" pageScale="1" pageWidth="827" pageHeight="1169" math="0" shadow="0">
      <root>
        <mxCell id="0" />
        <mxCell id="1" parent="0" />
        <object label="" placeholders="1" class_name="BackwardsEuler" id="JwoozNrwMrIAiXocNwRg-139">
          <mxCell style="rounded=0;whiteSpace=wrap;html=1;fillColor=#fff2cc;strokeColor=#d6b656;container=0;connectable=0;allowArrows=0;treeFolding=0;moveCells=0;treeMoving=0;comic=0;rotatable=0;expand=1;autosize=1;resizeWidth=1;resizeHeight=1;metaEdit=1;" vertex="1" parent="1">
            <mxGeometry x="50" y="250" width="870" height="570" as="geometry">
              <mxRectangle x="40" y="400" width="50" height="40" as="alternateBounds" />
            </mxGeometry>
          </mxCell>
        </object>
        <object label="%class_name%" placeholders="1" id="JwoozNrwMrIAiXocNwRg-140">
          <mxCell style="rounded=0;whiteSpace=wrap;html=1;fillColor=#ffffff;fontSize=18;connectable=0;allowArrows=0;rotatable=0;cloneable=0;deletable=0;" vertex="1" parent="JwoozNrwMrIAiXocNwRg-139">
            <mxGeometry x="12.083333333333334" y="21.50943396226415" width="845.8333333333334" height="43.0188679245283" as="geometry" />
          </mxCell>
        </object>
        <mxCell id="JwoozNrwMrIAiXocNwRg-141" value="" style="rounded=0;whiteSpace=wrap;html=1;fillColor=#ffffff;connectable=0;allowArrows=0;container=1;collapsible=0;portConstraintRotation=0;rotatable=0;cloneable=0;deletable=0;recursiveResize=0;" vertex="1" parent="JwoozNrwMrIAiXocNwRg-139">
          <mxGeometry x="12.083333333333334" y="75.28301886792453" width="845.8333333333334" height="483.96226415094344" as="geometry">
            <mxRectangle x="10" y="70" width="50" height="40" as="alternateBounds" />
          </mxGeometry>
        </mxCell>
        <mxCell id="JwoozNrwMrIAiXocNwRg-184" style="edgeStyle=orthogonalEdgeStyle;rounded=0;orthogonalLoop=1;jettySize=auto;html=1;exitX=1;exitY=0.5;exitDx=0;exitDy=0;entryX=0;entryY=0.5;entryDx=0;entryDy=0;" edge="1" parent="JwoozNrwMrIAiXocNwRg-141" source="JwoozNrwMrIAiXocNwRg-142" target="JwoozNrwMrIAiXocNwRg-153">
          <mxGeometry relative="1" as="geometry" />
        </mxCell>
        <object label="%name%" placeholders="1" name="IC" class_name="InputPort" id="JwoozNrwMrIAiXocNwRg-142">
          <mxCell style="triangle;fontSize=14;points=[[0,0.5],[1,0.5]];allowArrows=0;verticalAlign=middle;horizontal=1;spacingTop=0;align=right;spacingLeft=0;spacingRight=8;html=1;comic=0;treeFolding=0;treeMoving=0;resizable=0;movableLabel=1;spacing=2;aspect=fixed;fillColor=#000000;metaEdit=1;" vertex="1" parent="JwoozNrwMrIAiXocNwRg-141">
            <mxGeometry x="36.25000000000001" y="64.52830188679245" width="10" height="15" as="geometry">
              <mxPoint x="-4" y="-8" as="offset" />
            </mxGeometry>
          </mxCell>
        </object>
        <mxCell id="JwoozNrwMrIAiXocNwRg-169" style="edgeStyle=orthogonalEdgeStyle;rounded=0;orthogonalLoop=1;jettySize=auto;html=1;exitX=1;exitY=0.5;exitDx=0;exitDy=0;exitPerimeter=0;entryX=0;entryY=0.5;entryDx=0;entryDy=0;" edge="1" parent="JwoozNrwMrIAiXocNwRg-141" source="JwoozNrwMrIAiXocNwRg-144" target="JwoozNrwMrIAiXocNwRg-163">
          <mxGeometry relative="1" as="geometry" />
        </mxCell>
        <object label="%name%" placeholders="1" name="IN" class_name="InputPort" id="JwoozNrwMrIAiXocNwRg-144">
          <mxCell style="triangle;fontSize=14;points=[[1,0.5,0,0,0]];allowArrows=0;verticalAlign=middle;horizontal=1;spacingTop=0;align=right;spacingLeft=0;spacingRight=8;html=1;comic=0;treeFolding=0;treeMoving=0;resizable=0;movableLabel=1;spacing=2;aspect=fixed;fillColor=#000000;metaEdit=1;" vertex="1" parent="JwoozNrwMrIAiXocNwRg-141">
            <mxGeometry x="36.25000000000001" y="150.56603773584905" width="10" height="15" as="geometry">
              <mxPoint x="-4" y="-8" as="offset" />
            </mxGeometry>
          </mxCell>
        </object>
        <object label="%name%" placeholders="1" name="OUT" class_name="OutputPort" id="JwoozNrwMrIAiXocNwRg-145">
          <mxCell style="triangle;fillColor=#ffffff;fontSize=14;points=[[0,0.5],[1,0.5]];allowArrows=0;verticalAlign=middle;horizontal=1;spacingTop=0;align=left;spacingLeft=4;spacingRight=0;html=1;comic=0;treeFolding=0;treeMoving=0;movable=1;resizable=0;rotatable=1;deletable=1;editable=1;connectable=1;movableLabel=1;spacing=2;aspect=fixed;metaEdit=1;" vertex="1" parent="JwoozNrwMrIAiXocNwRg-141">
            <mxGeometry x="773.3333333333334" y="225.8490566037736" width="10" height="15" as="geometry">
              <mxPoint x="5" y="-7" as="offset" />
            </mxGeometry>
          </mxCell>
        </object>
        <object label="%symbol%" placeholders="1" symbol="D" class_name="DelayBlock" block_name="" id="JwoozNrwMrIAiXocNwRg-151">
          <mxCell style="whiteSpace=wrap;html=1;aspect=fixed;comic=0;fillColor=#FFFFFF;fontSize=36;align=center;resizable=0;container=1;collapsible=0;points=[];allowArrows=0;metaEdit=1;connectable=0;" vertex="1" parent="JwoozNrwMrIAiXocNwRg-141">
            <mxGeometry x="257.9166666666667" y="111.7446491745283" width="80" height="80" as="geometry" />
          </mxCell>
        </object>
        <object label="%name%" placeholders="1" name="OUT1" class_name="OutputPort" id="JwoozNrwMrIAiXocNwRg-152">
          <mxCell style="triangle;fillColor=#ffffff;fontSize=14;points=[[1,0.5]];allowArrows=0;verticalAlign=middle;horizontal=1;spacingTop=0;align=left;spacingLeft=4;spacingRight=0;html=1;comic=0;treeFolding=0;treeMoving=0;movable=1;resizable=0;rotatable=1;deletable=1;editable=1;connectable=1;movableLabel=1;spacing=2;aspect=fixed;metaEdit=1;" vertex="1" parent="JwoozNrwMrIAiXocNwRg-151">
            <mxGeometry x="70" y="32.5" width="10" height="15" as="geometry">
              <mxPoint x="5" y="-7" as="offset" />
            </mxGeometry>
          </mxCell>
        </object>
        <object label="%name%" placeholders="1" name="IC" class_name="InputPort" id="JwoozNrwMrIAiXocNwRg-153">
          <mxCell style="triangle;fontSize=14;points=[[0,0.5]];allowArrows=0;verticalAlign=middle;horizontal=1;spacingTop=0;align=right;spacingLeft=0;spacingRight=8;html=1;comic=0;treeFolding=0;treeMoving=0;resizable=0;movableLabel=1;spacing=2;aspect=fixed;fillColor=#000000;metaEdit=1;" vertex="1" parent="JwoozNrwMrIAiXocNwRg-151">
            <mxGeometry y="17.5" width="10" height="15" as="geometry">
              <mxPoint x="-4" y="-8" as="offset" />
            </mxGeometry>
          </mxCell>
        </object>
        <object label="%name%" placeholders="1" name="IN1" class_name="InputPort" id="JwoozNrwMrIAiXocNwRg-154">
          <mxCell style="triangle;fontSize=14;points=[[0,0.5]];allowArrows=0;verticalAlign=middle;horizontal=1;spacingTop=0;align=right;spacingLeft=0;spacingRight=8;html=1;comic=0;treeFolding=0;treeMoving=0;resizable=0;movableLabel=1;spacing=2;aspect=fixed;fillColor=#000000;metaEdit=1;" vertex="1" parent="JwoozNrwMrIAiXocNwRg-151">
            <mxGeometry y="47.5" width="10" height="15" as="geometry">
              <mxPoint x="-4" y="-8" as="offset" />
            </mxGeometry>
          </mxCell>
        </object>
        <object label="%symbol%" placeholders="1" block_name="" class_name="DeltaTBlock" symbol="&amp;#916;t" id="JwoozNrwMrIAiXocNwRg-158">
          <mxCell style="ellipse;whiteSpace=wrap;html=1;comic=0;fillColor=#ffffff;fontSize=24;align=center;allowArrows=0;connectable=0;container=1;collapsible=0;recursiveResize=1;direction=west;resizable=0;metaEdit=1;" vertex="1" parent="JwoozNrwMrIAiXocNwRg-141">
            <mxGeometry x="12.083333333333334" y="354.90566037735846" width="80" height="80" as="geometry" />
          </mxCell>
        </object>
        <object label="%name%" placeholders="1" name="OUT1" class_name="OutputPort" id="JwoozNrwMrIAiXocNwRg-159">
          <mxCell style="triangle;fillColor=#ffffff;fontSize=14;points=[[1,0.5]];allowArrows=0;verticalAlign=middle;horizontal=1;spacingTop=0;align=left;spacingLeft=4;spacingRight=0;html=1;comic=0;treeFolding=0;treeMoving=0;movable=1;resizable=0;rotatable=1;deletable=1;editable=1;connectable=1;movableLabel=1;spacing=2;aspect=fixed;metaEdit=1;" vertex="1" parent="JwoozNrwMrIAiXocNwRg-158">
            <mxGeometry x="70" y="32.5" width="10" height="15" as="geometry">
              <mxPoint x="6" y="-7" as="offset" />
            </mxGeometry>
          </mxCell>
        </object>
        <object label="%symbol%" placeholders="1" symbol="D" class_name="DelayBlock" block_name="" id="JwoozNrwMrIAiXocNwRg-160">
          <mxCell style="whiteSpace=wrap;html=1;aspect=fixed;comic=0;fillColor=#FFFFFF;fontSize=36;align=center;resizable=0;container=1;collapsible=0;points=[];allowArrows=0;metaEdit=1;connectable=0;" vertex="1" parent="JwoozNrwMrIAiXocNwRg-141">
            <mxGeometry x="249.16333333333336" y="259.7169074292452" width="80" height="80" as="geometry" />
          </mxCell>
        </object>
        <object label="%name%" placeholders="1" name="OUT1" class_name="OutputPort" id="JwoozNrwMrIAiXocNwRg-161">
          <mxCell style="triangle;fillColor=#ffffff;fontSize=14;points=[[1,0.5]];allowArrows=0;verticalAlign=middle;horizontal=1;spacingTop=0;align=left;spacingLeft=4;spacingRight=0;html=1;comic=0;treeFolding=0;treeMoving=0;movable=1;resizable=0;rotatable=1;deletable=1;editable=1;connectable=1;movableLabel=1;spacing=2;aspect=fixed;metaEdit=1;" vertex="1" parent="JwoozNrwMrIAiXocNwRg-160">
            <mxGeometry x="70" y="32.5" width="10" height="15" as="geometry">
              <mxPoint x="5" y="-7" as="offset" />
            </mxGeometry>
          </mxCell>
        </object>
        <object label="%name%" placeholders="1" name="IC" class_name="InputPort" id="JwoozNrwMrIAiXocNwRg-162">
          <mxCell style="triangle;fontSize=14;points=[[0,0.5]];allowArrows=0;verticalAlign=middle;horizontal=1;spacingTop=0;align=right;spacingLeft=0;spacingRight=8;html=1;comic=0;treeFolding=0;treeMoving=0;resizable=0;movableLabel=1;spacing=2;aspect=fixed;fillColor=#000000;metaEdit=1;" vertex="1" parent="JwoozNrwMrIAiXocNwRg-160">
            <mxGeometry y="17.5" width="10" height="15" as="geometry">
              <mxPoint x="-4" y="-8" as="offset" />
            </mxGeometry>
          </mxCell>
        </object>
        <object label="%name%" placeholders="1" name="IN1" class_name="InputPort" id="JwoozNrwMrIAiXocNwRg-163">
          <mxCell style="triangle;fontSize=14;points=[[0,0.5]];allowArrows=0;verticalAlign=middle;horizontal=1;spacingTop=0;align=right;spacingLeft=0;spacingRight=8;html=1;comic=0;treeFolding=0;treeMoving=0;resizable=0;movableLabel=1;spacing=2;aspect=fixed;fillColor=#000000;metaEdit=1;" vertex="1" parent="JwoozNrwMrIAiXocNwRg-160">
            <mxGeometry y="47.5" width="10" height="15" as="geometry">
              <mxPoint x="-4" y="-8" as="offset" />
            </mxGeometry>
          </mxCell>
        </object>
        <object label="%value%" placeholders="1" value="0" block_name="" class_name="ConstantBlock" id="JwoozNrwMrIAiXocNwRg-165">
          <mxCell style="ellipse;whiteSpace=wrap;html=1;comic=0;fillColor=#ffffff;fontSize=24;align=center;allowArrows=0;connectable=0;container=1;collapsible=0;recursiveResize=1;direction=west;resizable=0;metaEdit=1;" vertex="1" parent="JwoozNrwMrIAiXocNwRg-141">
            <mxGeometry x="12.083333333333334" y="215.0943396226415" width="80" height="80" as="geometry" />
          </mxCell>
        </object>
        <object label="%name%" placeholders="1" name="OUT1" class_name="OutputPort" id="JwoozNrwMrIAiXocNwRg-166">
          <mxCell style="triangle;fillColor=#ffffff;fontSize=14;points=[[1,0.5]];allowArrows=0;verticalAlign=middle;horizontal=1;spacingTop=0;align=left;spacingLeft=4;spacingRight=0;html=1;comic=0;treeFolding=0;treeMoving=0;movable=1;resizable=0;rotatable=1;deletable=1;editable=1;connectable=1;movableLabel=1;spacing=2;aspect=fixed;metaEdit=1;" vertex="1" parent="JwoozNrwMrIAiXocNwRg-165">
            <mxGeometry x="70" y="32.5" width="10" height="15" as="geometry">
              <mxPoint x="6" y="-7" as="offset" />
            </mxGeometry>
          </mxCell>
        </object>
        <mxCell id="JwoozNrwMrIAiXocNwRg-168" style="edgeStyle=orthogonalEdgeStyle;rounded=0;orthogonalLoop=1;jettySize=auto;html=1;exitX=1;exitY=0.5;exitDx=0;exitDy=0;entryX=0;entryY=0.5;entryDx=0;entryDy=0;" edge="1" parent="JwoozNrwMrIAiXocNwRg-141" source="JwoozNrwMrIAiXocNwRg-166" target="JwoozNrwMrIAiXocNwRg-162">
          <mxGeometry relative="1" as="geometry" />
        </mxCell>
        <object label="%symbol%" placeholders="1" symbol="&amp;prod;" class_name="ProductBlock" block_name="" numberOfInputs="2" id="JwoozNrwMrIAiXocNwRg-170">
          <mxCell style="whiteSpace=wrap;html=1;aspect=fixed;comic=0;fillColor=#FFFFFF;fontSize=36;align=center;resizable=0;container=1;collapsible=0;points=[];allowArrows=0;spacingTop=-6;metaEdit=1;connectable=0;" vertex="1" parent="JwoozNrwMrIAiXocNwRg-141">
            <mxGeometry x="447.9166666666667" y="274.90323113207546" width="80" height="80" as="geometry" />
          </mxCell>
        </object>
        <object label="%name%" placeholders="1" name="OUT1" class_name="OutputPort" id="JwoozNrwMrIAiXocNwRg-171">
          <mxCell style="triangle;fillColor=#ffffff;fontSize=14;points=[[1,0.5]];allowArrows=0;verticalAlign=middle;horizontal=1;spacingTop=0;align=left;spacingLeft=4;spacingRight=0;html=1;comic=0;treeFolding=0;treeMoving=0;movable=1;resizable=0;rotatable=1;deletable=1;editable=1;connectable=1;movableLabel=1;spacing=2;aspect=fixed;metaEdit=1;" vertex="1" parent="JwoozNrwMrIAiXocNwRg-170">
            <mxGeometry x="70" y="32.5" width="10" height="15" as="geometry">
              <mxPoint x="5" y="-7" as="offset" />
            </mxGeometry>
          </mxCell>
        </object>
        <object label="%name%" placeholders="1" name="IN1" class_name="InputPort" id="JwoozNrwMrIAiXocNwRg-172">
          <mxCell style="triangle;fontSize=14;points=[[0,0.5]];allowArrows=0;verticalAlign=middle;horizontal=1;spacingTop=0;align=right;spacingLeft=0;spacingRight=8;html=1;comic=0;treeFolding=0;treeMoving=0;resizable=0;movableLabel=1;spacing=2;aspect=fixed;fillColor=#000000;metaEdit=1;" vertex="1" parent="JwoozNrwMrIAiXocNwRg-170">
            <mxGeometry y="17.5" width="10" height="15" as="geometry">
              <mxPoint x="-4" y="-8" as="offset" />
            </mxGeometry>
          </mxCell>
        </object>
        <object label="%name%" placeholders="1" name="IN2" class_name="InputPort" id="JwoozNrwMrIAiXocNwRg-173">
          <mxCell style="triangle;fontSize=14;points=[[0,0.5]];allowArrows=0;verticalAlign=middle;horizontal=1;spacingTop=0;align=right;spacingLeft=0;spacingRight=8;html=1;comic=0;treeFolding=0;treeMoving=0;resizable=0;movableLabel=1;spacing=2;aspect=fixed;fillColor=#000000;metaEdit=1;" vertex="1" parent="JwoozNrwMrIAiXocNwRg-170">
            <mxGeometry y="47.5" width="10" height="15" as="geometry">
              <mxPoint x="-4" y="-8" as="offset" />
            </mxGeometry>
          </mxCell>
        </object>
        <mxCell id="JwoozNrwMrIAiXocNwRg-174" style="edgeStyle=orthogonalEdgeStyle;rounded=0;orthogonalLoop=1;jettySize=auto;html=1;exitX=1;exitY=0.5;exitDx=0;exitDy=0;" edge="1" parent="JwoozNrwMrIAiXocNwRg-141" source="JwoozNrwMrIAiXocNwRg-161" target="JwoozNrwMrIAiXocNwRg-172">
          <mxGeometry relative="1" as="geometry" />
        </mxCell>
        <mxCell id="JwoozNrwMrIAiXocNwRg-175" style="edgeStyle=orthogonalEdgeStyle;rounded=0;orthogonalLoop=1;jettySize=auto;html=1;exitX=1;exitY=0.5;exitDx=0;exitDy=0;entryX=0;entryY=0.5;entryDx=0;entryDy=0;" edge="1" parent="JwoozNrwMrIAiXocNwRg-141" source="JwoozNrwMrIAiXocNwRg-159" target="JwoozNrwMrIAiXocNwRg-173">
          <mxGeometry relative="1" as="geometry">
            <Array as="points">
              <mxPoint x="92" y="390" />
              <mxPoint x="388" y="390" />
              <mxPoint x="388" y="330" />
            </Array>
          </mxGeometry>
        </mxCell>
        <object label="%symbol%" placeholders="1" symbol="&amp;sum;" class_name="AdderBlock" block_name="" numberOfInputs="2" id="JwoozNrwMrIAiXocNwRg-176">
          <mxCell style="whiteSpace=wrap;html=1;aspect=fixed;comic=0;fillColor=#FFFFFF;fontSize=36;align=center;resizable=0;container=1;collapsible=0;points=[];allowArrows=0;spacingTop=-6;metaEdit=1;connectable=0;" vertex="1" parent="JwoozNrwMrIAiXocNwRg-141">
            <mxGeometry x="577.9166666666666" y="111.74823113207546" width="80" height="80" as="geometry" />
          </mxCell>
        </object>
        <object label="%name%" placeholders="1" name="OUT1" class_name="OutputPort" id="JwoozNrwMrIAiXocNwRg-177">
          <mxCell style="triangle;fillColor=#ffffff;fontSize=14;points=[[1,0.5]];allowArrows=0;verticalAlign=middle;horizontal=1;spacingTop=0;align=left;spacingLeft=4;spacingRight=0;html=1;comic=0;treeFolding=0;treeMoving=0;movable=1;resizable=0;rotatable=1;deletable=1;editable=1;connectable=1;movableLabel=1;spacing=2;aspect=fixed;metaEdit=1;" vertex="1" parent="JwoozNrwMrIAiXocNwRg-176">
            <mxGeometry x="70" y="32.5" width="10" height="15" as="geometry">
              <mxPoint x="5" y="-7" as="offset" />
            </mxGeometry>
          </mxCell>
        </object>
        <object label="%name%" placeholders="1" name="IN1" class_name="InputPort" id="JwoozNrwMrIAiXocNwRg-178">
          <mxCell style="triangle;fontSize=14;points=[[0,0.5]];allowArrows=0;verticalAlign=middle;horizontal=1;spacingTop=0;align=right;spacingLeft=0;spacingRight=8;html=1;comic=0;treeFolding=0;treeMoving=0;resizable=0;movableLabel=1;spacing=2;aspect=fixed;fillColor=#000000;metaEdit=1;" vertex="1" parent="JwoozNrwMrIAiXocNwRg-176">
            <mxGeometry y="17.5" width="10" height="15" as="geometry">
              <mxPoint x="-4" y="-8" as="offset" />
            </mxGeometry>
          </mxCell>
        </object>
        <object label="%name%" placeholders="1" name="IN2" class_name="InputPort" id="JwoozNrwMrIAiXocNwRg-179">
          <mxCell style="triangle;fontSize=14;points=[[0,0.5]];allowArrows=0;verticalAlign=middle;horizontal=1;spacingTop=0;align=right;spacingLeft=0;spacingRight=8;html=1;comic=0;treeFolding=0;treeMoving=0;resizable=0;movableLabel=1;spacing=2;aspect=fixed;fillColor=#000000;metaEdit=1;" vertex="1" parent="JwoozNrwMrIAiXocNwRg-176">
            <mxGeometry y="47.5" width="10" height="15" as="geometry">
              <mxPoint x="-4" y="-8" as="offset" />
            </mxGeometry>
          </mxCell>
        </object>
        <mxCell id="JwoozNrwMrIAiXocNwRg-180" style="edgeStyle=orthogonalEdgeStyle;rounded=0;orthogonalLoop=1;jettySize=auto;html=1;exitX=1;exitY=0.5;exitDx=0;exitDy=0;entryX=0;entryY=0.5;entryDx=0;entryDy=0;" edge="1" parent="JwoozNrwMrIAiXocNwRg-141" source="JwoozNrwMrIAiXocNwRg-171" target="JwoozNrwMrIAiXocNwRg-179">
          <mxGeometry relative="1" as="geometry" />
        </mxCell>
        <mxCell id="JwoozNrwMrIAiXocNwRg-181" style="edgeStyle=orthogonalEdgeStyle;rounded=0;orthogonalLoop=1;jettySize=auto;html=1;exitX=1;exitY=0.5;exitDx=0;exitDy=0;entryX=0;entryY=0.5;entryDx=0;entryDy=0;" edge="1" parent="JwoozNrwMrIAiXocNwRg-141" source="JwoozNrwMrIAiXocNwRg-152" target="JwoozNrwMrIAiXocNwRg-178">
          <mxGeometry relative="1" as="geometry" />
        </mxCell>
        <mxCell id="JwoozNrwMrIAiXocNwRg-182" style="edgeStyle=orthogonalEdgeStyle;rounded=0;orthogonalLoop=1;jettySize=auto;html=1;exitX=1;exitY=0.5;exitDx=0;exitDy=0;entryX=0;entryY=0.5;entryDx=0;entryDy=0;" edge="1" parent="JwoozNrwMrIAiXocNwRg-141" source="JwoozNrwMrIAiXocNwRg-177" target="JwoozNrwMrIAiXocNwRg-154">
          <mxGeometry relative="1" as="geometry">
            <Array as="points">
              <mxPoint x="688" y="152" />
              <mxPoint x="688" y="22" />
              <mxPoint x="229" y="22" />
              <mxPoint x="229" y="167" />
            </Array>
          </mxGeometry>
        </mxCell>
        <mxCell id="JwoozNrwMrIAiXocNwRg-183" style="edgeStyle=orthogonalEdgeStyle;rounded=0;orthogonalLoop=1;jettySize=auto;html=1;exitX=1;exitY=0.5;exitDx=0;exitDy=0;entryX=0;entryY=0.5;entryDx=0;entryDy=0;" edge="1" parent="JwoozNrwMrIAiXocNwRg-141" source="JwoozNrwMrIAiXocNwRg-177" target="JwoozNrwMrIAiXocNwRg-145">
          <mxGeometry relative="1" as="geometry" />
        </mxCell>
      </root>
    </mxGraphModel>
  </diagram>
</mxfile>
